<svg width="1410" height="94" viewBox="0 0 1410 94" fill="none" xmlns="http://www.w3.org/2000/svg">
<mask id="mask0_741_10655" style="mask-type:luminance" maskUnits="userSpaceOnUse" x="0" y="0" width="94" height="94">
<path d="M0 0H94V94H0V0Z" fill="white"/>
</mask>
<g mask="url(#mask0_741_10655)">
<path d="M94 -0.000230014H94.6912V-0.691406H94V-0.000230014ZM94 93.9998V94.6909H94.6912V93.9998H94ZM0 0.690941H94V-0.691406H0V0.690941ZM93.3088 -0.000230014V93.9998H94.6912V-0.000230014H93.3088ZM94 93.3086H0V94.6909H94V93.3086Z" fill="url(#paint0_linear_741_10655)" fill-opacity="0.2"/>
</g>
<mask id="mask1_741_10655" style="mask-type:luminance" maskUnits="userSpaceOnUse" x="94" y="0" width="94" height="94">
<path d="M94 0H188V94H94V0Z" fill="white"/>
</mask>
<g mask="url(#mask1_741_10655)">
<path d="M93.9997 -0.000230014V-0.691406H93.3086V-0.000230014H93.9997ZM188 -0.000230014H188.691V-0.691406H188V-0.000230014ZM188 93.9998V94.6909H188.691V93.9998H188ZM93.9997 93.9998H93.3086V94.6909H93.9997V93.9998ZM93.9997 0.690941H188V-0.691406H93.9997V0.690941ZM187.309 -0.000230014V93.9998H188.691V-0.000230014H187.309ZM188 93.3086H93.9997V94.6909H188V93.3086ZM94.6909 93.9998V-0.000230014H93.3086V93.9998H94.6909Z" fill="#787878" fill-opacity="0.5"/>
</g>
<mask id="mask2_741_10655" style="mask-type:luminance" maskUnits="userSpaceOnUse" x="188" y="0" width="94" height="94">
<path d="M188 0H282V94H188V0Z" fill="white"/>
</mask>
<g mask="url(#mask2_741_10655)">
<path d="M188 -0.000230014V-0.691406H187.31V-0.000230014H188ZM282 -0.000230014H282.692V-0.691406H282V-0.000230014ZM282 93.9998V94.6909H282.692V93.9998H282ZM188 93.9998H187.31V94.6909H188V93.9998ZM188 0.690941H282V-0.691406H188V0.690941ZM281.31 -0.000230014V93.9998H282.692V-0.000230014H281.31ZM282 93.3086H188V94.6909H282V93.3086ZM188.692 93.9998V-0.000230014H187.31V93.9998H188.692Z" fill="#787878" fill-opacity="0.5"/>
</g>
<mask id="mask3_741_10655" style="mask-type:luminance" maskUnits="userSpaceOnUse" x="282" y="0" width="94" height="94">
<path d="M282 0H376V94H282V0Z" fill="white"/>
</mask>
<g mask="url(#mask3_741_10655)">
<path d="M282 -0.000230014V-0.691406H281.31V-0.000230014H282ZM376 -0.000230014H376.692V-0.691406H376V-0.000230014ZM376 93.9998V94.6909H376.692V93.9998H376ZM282 93.9998H281.31V94.6909H282V93.9998ZM282 0.690941H376V-0.691406H282V0.690941ZM375.309 -0.000230014V93.9998H376.692V-0.000230014H375.309ZM376 93.3086H282V94.6909H376V93.3086ZM282.692 93.9998V-0.000230014H281.31V93.9998H282.692Z" fill="#787878" fill-opacity="0.5"/>
</g>
<mask id="mask4_741_10655" style="mask-type:luminance" maskUnits="userSpaceOnUse" x="376" y="0" width="94" height="94">
<path d="M376 0H470V94H376V0Z" fill="white"/>
</mask>
<g mask="url(#mask4_741_10655)">
<path d="M376 -0.000230014V-0.691406H375.309V-0.000230014H376ZM470 -0.000230014H470.691V-0.691406H470V-0.000230014ZM470 93.9998V94.6909H470.691V93.9998H470ZM376 93.9998H375.309V94.6909H376V93.9998ZM376 0.690941H470V-0.691406H376V0.690941ZM469.309 -0.000230014V93.9998H470.691V-0.000230014H469.309ZM470 93.3086H376V94.6909H470V93.3086ZM376.692 93.9998V-0.000230014H375.309V93.9998H376.692Z" fill="#787878" fill-opacity="0.5"/>
</g>
<mask id="mask5_741_10655" style="mask-type:luminance" maskUnits="userSpaceOnUse" x="470" y="0" width="94" height="94">
<path d="M470 0H564V94H470V0Z" fill="white"/>
</mask>
<g mask="url(#mask5_741_10655)">
<path d="M470 -0.000230014V-0.691406H469.309V-0.000230014H470ZM564 -0.000230014H564.692V-0.691406H564V-0.000230014ZM564 93.9998V94.6909H564.692V93.9998H564ZM470 93.9998H469.309V94.6909H470V93.9998ZM470 0.690941H564V-0.691406H470V0.690941ZM563.31 -0.000230014V93.9998H564.692V-0.000230014H563.31ZM564 93.3086H470V94.6909H564V93.3086ZM470.691 93.9998V-0.000230014H469.309V93.9998H470.691Z" fill="#787878" fill-opacity="0.5"/>
</g>
<mask id="mask6_741_10655" style="mask-type:luminance" maskUnits="userSpaceOnUse" x="564" y="0" width="94" height="94">
<path d="M564 0H658V94H564V0Z" fill="white"/>
</mask>
<g mask="url(#mask6_741_10655)">
<path d="M564 -0.000230014V-0.691406H563.31V-0.000230014H564ZM658 -0.000230014H658.692V-0.691406H658V-0.000230014ZM658 93.9998V94.6909H658.692V93.9998H658ZM564 93.9998H563.31V94.6909H564V93.9998ZM564 0.690941H658V-0.691406H564V0.690941ZM657.309 -0.000230014V93.9998H658.692V-0.000230014H657.309ZM658 93.3086H564V94.6909H658V93.3086ZM564.692 93.9998V-0.000230014H563.31V93.9998H564.692Z" fill="#787878" fill-opacity="0.5"/>
</g>
<mask id="mask7_741_10655" style="mask-type:luminance" maskUnits="userSpaceOnUse" x="658" y="0" width="94" height="94">
<path d="M658 0H752V94H658V0Z" fill="white"/>
</mask>
<g mask="url(#mask7_741_10655)">
<path d="M658 -0.000230014V-0.691406H657.31V-0.000230014H658ZM752 -0.000230014H752.692V-0.691406H752V-0.000230014ZM752 93.9998V94.6909H752.692V93.9998H752ZM658 93.9998H657.31V94.6909H658V93.9998ZM658 0.690941H752V-0.691406H658V0.690941ZM751.309 -0.000230014V93.9998H752.692V-0.000230014H751.309ZM752 93.3086H658V94.6909H752V93.3086ZM658.692 93.9998V-0.000230014H657.31V93.9998H658.692Z" fill="#787878" fill-opacity="0.5"/>
</g>
<mask id="mask8_741_10655" style="mask-type:luminance" maskUnits="userSpaceOnUse" x="752" y="0" width="94" height="94">
<path d="M752 0H846V94H752V0Z" fill="white"/>
</mask>
<g mask="url(#mask8_741_10655)">
<path d="M752 -0.000230014V-0.691406H751.309V-0.000230014H752ZM846 -0.000230014H846.691V-0.691406H846V-0.000230014ZM846 93.9998V94.6909H846.691V93.9998H846ZM752 93.9998H751.309V94.6909H752V93.9998ZM752 0.690941H846V-0.691406H752V0.690941ZM845.309 -0.000230014V93.9998H846.691V-0.000230014H845.309ZM846 93.3086H752V94.6909H846V93.3086ZM752.692 93.9998V-0.000230014H751.309V93.9998H752.692Z" fill="#787878" fill-opacity="0.5"/>
</g>
<mask id="mask9_741_10655" style="mask-type:luminance" maskUnits="userSpaceOnUse" x="846" y="0" width="94" height="94">
<path d="M846 0H940V94H846V0Z" fill="white"/>
</mask>
<g mask="url(#mask9_741_10655)">
<path d="M846 -0.000230014V-0.691406H845.309V-0.000230014H846ZM940.001 -0.000230014H940.693V-0.691406H940.001V-0.000230014ZM940.001 93.9998V94.6909H940.693V93.9998H940.001ZM846 93.9998H845.309V94.6909H846V93.9998ZM846 0.690941H940.001V-0.691406H846V0.690941ZM939.311 -0.000230014V93.9998H940.693V-0.000230014H939.311ZM940.001 93.3086H846V94.6909H940.001V93.3086ZM846.691 93.9998V-0.000230014H845.309V93.9998H846.691Z" fill="#787878" fill-opacity="0.5"/>
</g>
<mask id="mask10_741_10655" style="mask-type:luminance" maskUnits="userSpaceOnUse" x="940" y="0" width="94" height="94">
<path d="M940 0H1034V94H940V0Z" fill="white"/>
</mask>
<g mask="url(#mask10_741_10655)">
<path d="M940 -0.000230014V-0.691406H939.31V-0.000230014H940ZM1034 -0.000230014H1034.69V-0.691406H1034V-0.000230014ZM1034 93.9998V94.6909H1034.69V93.9998H1034ZM940 93.9998H939.31V94.6909H940V93.9998ZM940 0.690941H1034V-0.691406H940V0.690941ZM1033.32 -0.000230014V93.9998H1034.69V-0.000230014H1033.32ZM1034 93.3086H940V94.6909H1034V93.3086ZM940.692 93.9998V-0.000230014H939.31V93.9998H940.692Z" fill="#787878" fill-opacity="0.5"/>
</g>
<mask id="mask11_741_10655" style="mask-type:luminance" maskUnits="userSpaceOnUse" x="1034" y="0" width="94" height="94">
<path d="M1034 0H1128V94H1034V0Z" fill="white"/>
</mask>
<g mask="url(#mask11_741_10655)">
<path d="M1034 -0.000230014V-0.691406H1033.32V-0.000230014H1034ZM1128 -0.000230014H1128.69V-0.691406H1128V-0.000230014ZM1128 93.9998V94.6909H1128.69V93.9998H1128ZM1034 93.9998H1033.32V94.6909H1034V93.9998ZM1034 0.690941H1128V-0.691406H1034V0.690941ZM1127.31 -0.000230014V93.9998H1128.69V-0.000230014H1127.31ZM1128 93.3086H1034V94.6909H1128V93.3086ZM1034.69 93.9998V-0.000230014H1033.32V93.9998H1034.69Z" fill="#787878" fill-opacity="0.5"/>
</g>
<mask id="mask12_741_10655" style="mask-type:luminance" maskUnits="userSpaceOnUse" x="1128" y="0" width="94" height="94">
<path d="M1128 0H1222V94H1128V0Z" fill="white"/>
</mask>
<g mask="url(#mask12_741_10655)">
<path d="M1128 -0.000230014V-0.691406H1127.31V-0.000230014H1128ZM1222 -0.000230014H1222.69V-0.691406H1222V-0.000230014ZM1222 93.9998V94.6909H1222.69V93.9998H1222ZM1128 93.9998H1127.31V94.6909H1128V93.9998ZM1128 0.690941H1222V-0.691406H1128V0.690941ZM1221.32 -0.000230014V93.9998H1222.69V-0.000230014H1221.32ZM1222 93.3086H1128V94.6909H1222V93.3086ZM1128.69 93.9998V-0.000230014H1127.31V93.9998H1128.69Z" fill="#787878" fill-opacity="0.5"/>
</g>
<mask id="mask13_741_10655" style="mask-type:luminance" maskUnits="userSpaceOnUse" x="1222" y="0" width="94" height="94">
<path d="M1222 0H1316V94H1222V0Z" fill="white"/>
</mask>
<g mask="url(#mask13_741_10655)">
<path d="M1222 -0.000230014V-0.691406H1221.32V-0.000230014H1222ZM1316 -0.000230014H1316.69V-0.691406H1316V-0.000230014ZM1316 93.9998V94.6909H1316.69V93.9998H1316ZM1222 93.9998H1221.32V94.6909H1222V93.9998ZM1222 0.690941H1316V-0.691406H1222V0.690941ZM1315.31 -0.000230014V93.9998H1316.69V-0.000230014H1315.31ZM1316 93.3086H1222V94.6909H1316V93.3086ZM1222.69 93.9998V-0.000230014H1221.32V93.9998H1222.69Z" fill="#787878" fill-opacity="0.5"/>
</g>
<mask id="mask14_741_10655" style="mask-type:luminance" maskUnits="userSpaceOnUse" x="1316" y="0" width="94" height="94">
<path d="M1316 0H1410V94H1316V0Z" fill="white"/>
</mask>
<g mask="url(#mask14_741_10655)">
<path d="M1410 -0.000230014H1410.68V-0.691406H1410V-0.000230014ZM1410 93.9998V94.6909H1410.68V93.9998H1410ZM1316 0.690941H1410V-0.691406H1316V0.690941ZM1409.31 -0.000230014V93.9998H1410.68V-0.000230014H1409.31ZM1410 93.3086H1316V94.6909H1410V93.3086Z" fill="url(#paint1_linear_741_10655)" fill-opacity="0.2"/>
</g>
<defs>
<linearGradient id="paint0_linear_741_10655" x1="0" y1="46.9997" x2="94" y2="46.9997" gradientUnits="userSpaceOnUse">
<stop offset="0.0292777" stop-color="white" stop-opacity="0"/>
<stop offset="0.995147" stop-color="#CCCCCC"/>
</linearGradient>
<linearGradient id="paint1_linear_741_10655" x1="1316" y1="46.9997" x2="1410" y2="46.9997" gradientUnits="userSpaceOnUse">
<stop stop-color="#CCCCCC"/>
<stop offset="1" stop-color="white" stop-opacity="0"/>
</linearGradient>
</defs>
</svg>
