<svg width="1410" height="94" viewBox="0 0 1410 94" fill="none" xmlns="http://www.w3.org/2000/svg">
<mask id="mask0_1783_4775" style="mask-type:luminance" maskUnits="userSpaceOnUse" x="0" y="0" width="94" height="94">
<path d="M0 0H94V94H0V0Z" fill="white"/>
</mask>
<g mask="url(#mask0_1783_4775)">
<path d="M94 -0.000229061H94.6912V-0.691406H94V-0.000229061ZM0 0.690948H94V-0.691406H0V0.690948ZM93.3088 -0.000229061V93.9998H94.6912V-0.000229061H93.3088Z" fill="url(#paint0_linear_1783_4775)" fill-opacity="0.2"/>
</g>
<mask id="mask1_1783_4775" style="mask-type:luminance" maskUnits="userSpaceOnUse" x="94" y="0" width="94" height="94">
<path d="M94 0H188V94H94V0Z" fill="white"/>
</mask>
<g mask="url(#mask1_1783_4775)">
<path d="M93.9997 -0.000229061V-0.691406H93.3086V-0.000229061H93.9997ZM188 -0.000229061H188.691V-0.691406H188V-0.000229061ZM93.9997 0.690948H188V-0.691406H93.9997V0.690948ZM187.309 -0.000229061V93.9998H188.691V-0.000229061H187.309ZM94.6909 93.9998V-0.000229061H93.3086V93.9998H94.6909Z" fill="url(#paint1_linear_1783_4775)" fill-opacity="0.2"/>
</g>
<mask id="mask2_1783_4775" style="mask-type:luminance" maskUnits="userSpaceOnUse" x="188" y="0" width="94" height="94">
<path d="M188 0H282V94H188V0Z" fill="white"/>
</mask>
<g mask="url(#mask2_1783_4775)">
<path d="M187.999 -0.000229061V-0.691406H187.309V-0.000229061H187.999ZM281.999 -0.000229061H282.691V-0.691406H281.999V-0.000229061ZM187.999 0.690948H281.999V-0.691406H187.999V0.690948ZM281.309 -0.000229061V93.9998H282.691V-0.000229061H281.309ZM188.691 93.9998V-0.000229061H187.309V93.9998H188.691Z" fill="url(#paint2_linear_1783_4775)" fill-opacity="0.2"/>
</g>
<mask id="mask3_1783_4775" style="mask-type:luminance" maskUnits="userSpaceOnUse" x="282" y="0" width="94" height="94">
<path d="M282 0H376V94H282V0Z" fill="white"/>
</mask>
<g mask="url(#mask3_1783_4775)">
<path d="M281.999 -0.000229061V-0.691406H281.309V-0.000229061H281.999ZM375.999 -0.000229061H376.691V-0.691406H375.999V-0.000229061ZM281.999 0.690948H375.999V-0.691406H281.999V0.690948ZM375.308 -0.000229061V93.9998H376.691V-0.000229061H375.308ZM282.691 93.9998V-0.000229061H281.309V93.9998H282.691Z" fill="url(#paint3_linear_1783_4775)" fill-opacity="0.2"/>
</g>
<mask id="mask4_1783_4775" style="mask-type:luminance" maskUnits="userSpaceOnUse" x="376" y="0" width="94" height="94">
<path d="M376 0H470V94H376V0Z" fill="white"/>
</mask>
<g mask="url(#mask4_1783_4775)">
<path d="M376 -0.000229061V-0.691406H375.309V-0.000229061H376ZM470 -0.000229061H470.691V-0.691406H470V-0.000229061ZM376 0.690948H470V-0.691406H376V0.690948ZM469.309 -0.000229061V93.9998H470.691V-0.000229061H469.309ZM376.692 93.9998V-0.000229061H375.309V93.9998H376.692Z" fill="url(#paint4_linear_1783_4775)" fill-opacity="0.2"/>
</g>
<mask id="mask5_1783_4775" style="mask-type:luminance" maskUnits="userSpaceOnUse" x="470" y="0" width="94" height="94">
<path d="M470 0H564V94H470V0Z" fill="white"/>
</mask>
<g mask="url(#mask5_1783_4775)">
<path d="M470 -0.000229061V-0.691406H469.309V-0.000229061H470ZM564 -0.000229061H564.692V-0.691406H564V-0.000229061ZM470 0.690948H564V-0.691406H470V0.690948ZM563.31 -0.000229061V93.9998H564.692V-0.000229061H563.31ZM470.691 93.9998V-0.000229061H469.309V93.9998H470.691Z" fill="url(#paint5_linear_1783_4775)" fill-opacity="0.2"/>
</g>
<mask id="mask6_1783_4775" style="mask-type:luminance" maskUnits="userSpaceOnUse" x="564" y="0" width="94" height="94">
<path d="M564 0H658V94H564V0Z" fill="white"/>
</mask>
<g mask="url(#mask6_1783_4775)">
<path d="M563.999 -0.000229061V-0.691406H563.309V-0.000229061H563.999ZM657.999 -0.000229061H658.691V-0.691406H657.999V-0.000229061ZM563.999 0.690948H657.999V-0.691406H563.999V0.690948ZM657.308 -0.000229061V93.9998H658.691V-0.000229061H657.308ZM564.691 93.9998V-0.000229061H563.309V93.9998H564.691Z" fill="url(#paint6_linear_1783_4775)" fill-opacity="0.2"/>
</g>
<mask id="mask7_1783_4775" style="mask-type:luminance" maskUnits="userSpaceOnUse" x="658" y="0" width="94" height="94">
<path d="M658 0H752V94H658V0Z" fill="white"/>
</mask>
<g mask="url(#mask7_1783_4775)">
<path d="M657.999 -0.000229061V-0.691406H657.309V-0.000229061H657.999ZM751.999 -0.000229061H752.691V-0.691406H751.999V-0.000229061ZM657.999 0.690948H751.999V-0.691406H657.999V0.690948ZM751.308 -0.000229061V93.9998H752.691V-0.000229061H751.308ZM658.691 93.9998V-0.000229061H657.309V93.9998H658.691Z" fill="url(#paint7_linear_1783_4775)" fill-opacity="0.2"/>
</g>
<mask id="mask8_1783_4775" style="mask-type:luminance" maskUnits="userSpaceOnUse" x="752" y="0" width="94" height="94">
<path d="M752 0H846V94H752V0Z" fill="white"/>
</mask>
<g mask="url(#mask8_1783_4775)">
<path d="M752 -0.000229061V-0.691406H751.309V-0.000229061H752ZM846 -0.000229061H846.691V-0.691406H846V-0.000229061ZM752 0.690948H846V-0.691406H752V0.690948ZM845.309 -0.000229061V93.9998H846.691V-0.000229061H845.309ZM752.692 93.9998V-0.000229061H751.309V93.9998H752.692Z" fill="url(#paint8_linear_1783_4775)" fill-opacity="0.2"/>
</g>
<mask id="mask9_1783_4775" style="mask-type:luminance" maskUnits="userSpaceOnUse" x="846" y="0" width="94" height="94">
<path d="M846 0H940V94H846V0Z" fill="white"/>
</mask>
<g mask="url(#mask9_1783_4775)">
<path d="M846 -0.000229061V-0.691406H845.309V-0.000229061H846ZM940 -0.000229061H940.692V-0.691406H940V-0.000229061ZM846 0.690948H940V-0.691406H846V0.690948ZM939.31 -0.000229061V93.9998H940.692V-0.000229061H939.31ZM846.691 93.9998V-0.000229061H845.309V93.9998H846.691Z" fill="url(#paint9_linear_1783_4775)" fill-opacity="0.2"/>
</g>
<mask id="mask10_1783_4775" style="mask-type:luminance" maskUnits="userSpaceOnUse" x="940" y="0" width="94" height="94">
<path d="M940 0H1034V94H940V0Z" fill="white"/>
</mask>
<g mask="url(#mask10_1783_4775)">
<path d="M939.999 -0.000229061V-0.691406H939.309V-0.000229061H939.999ZM1034 -0.000229061H1034.69V-0.691406H1034V-0.000229061ZM939.999 0.690948H1034V-0.691406H939.999V0.690948ZM1033.32 -0.000229061V93.9998H1034.69V-0.000229061H1033.32ZM940.691 93.9998V-0.000229061H939.309V93.9998H940.691Z" fill="url(#paint10_linear_1783_4775)" fill-opacity="0.2"/>
</g>
<mask id="mask11_1783_4775" style="mask-type:luminance" maskUnits="userSpaceOnUse" x="1034" y="0" width="94" height="94">
<path d="M1034 0H1128V94H1034V0Z" fill="white"/>
</mask>
<g mask="url(#mask11_1783_4775)">
<path d="M1034 -0.000229061V-0.691406H1033.32V-0.000229061H1034ZM1128 -0.000229061H1128.69V-0.691406H1128V-0.000229061ZM1034 0.690948H1128V-0.691406H1034V0.690948ZM1127.31 -0.000229061V93.9998H1128.69V-0.000229061H1127.31ZM1034.69 93.9998V-0.000229061H1033.32V93.9998H1034.69Z" fill="url(#paint11_linear_1783_4775)" fill-opacity="0.2"/>
</g>
<mask id="mask12_1783_4775" style="mask-type:luminance" maskUnits="userSpaceOnUse" x="1128" y="0" width="94" height="94">
<path d="M1128 0H1222V94H1128V0Z" fill="white"/>
</mask>
<g mask="url(#mask12_1783_4775)">
<path d="M1128 -0.000229061V-0.691406H1127.31V-0.000229061H1128ZM1222 -0.000229061H1222.69V-0.691406H1222V-0.000229061ZM1128 0.690948H1222V-0.691406H1128V0.690948ZM1221.32 -0.000229061V93.9998H1222.69V-0.000229061H1221.32ZM1128.69 93.9998V-0.000229061H1127.31V93.9998H1128.69Z" fill="url(#paint12_linear_1783_4775)" fill-opacity="0.2"/>
</g>
<mask id="mask13_1783_4775" style="mask-type:luminance" maskUnits="userSpaceOnUse" x="1222" y="0" width="94" height="94">
<path d="M1222 0H1316V94H1222V0Z" fill="white"/>
</mask>
<g mask="url(#mask13_1783_4775)">
<path d="M1222 -0.000229061V-0.691406H1221.32V-0.000229061H1222ZM1316 -0.000229061H1316.69V-0.691406H1316V-0.000229061ZM1222 0.690948H1316V-0.691406H1222V0.690948ZM1315.31 -0.000229061V93.9998H1316.69V-0.000229061H1315.31ZM1222.69 93.9998V-0.000229061H1221.32V93.9998H1222.69Z" fill="url(#paint13_linear_1783_4775)" fill-opacity="0.2"/>
</g>
<mask id="mask14_1783_4775" style="mask-type:luminance" maskUnits="userSpaceOnUse" x="1316" y="0" width="94" height="94">
<path d="M1316 0H1410V94H1316V0Z" fill="white"/>
</mask>
<g mask="url(#mask14_1783_4775)">
<path d="M1316 -0.000229061V-0.691406H1315.31V-0.000229061H1316ZM1316 0.690948H1410V-0.691406H1316V0.690948ZM1316.69 93.9998V-0.000229061H1315.31V93.9998H1316.69Z" fill="url(#paint14_linear_1783_4775)" fill-opacity="0.2"/>
</g>
<defs>
<linearGradient id="paint0_linear_1783_4775" x1="4.37721e-07" y1="93.9998" x2="94" y2="-0.000191759" gradientUnits="userSpaceOnUse">
<stop offset="0.0292777" stop-color="white" stop-opacity="0"/>
<stop offset="0.995147" stop-color="#CCCCCC"/>
</linearGradient>
<linearGradient id="paint1_linear_1783_4775" x1="141" y1="93.9998" x2="141" y2="-0.000229119" gradientUnits="userSpaceOnUse">
<stop offset="0.0292777" stop-color="white" stop-opacity="0"/>
<stop offset="0.995147" stop-color="#CCCCCC"/>
</linearGradient>
<linearGradient id="paint2_linear_1783_4775" x1="234.999" y1="93.9998" x2="234.999" y2="-0.000229119" gradientUnits="userSpaceOnUse">
<stop offset="0.0292777" stop-color="white" stop-opacity="0"/>
<stop offset="0.995147" stop-color="#CCCCCC"/>
</linearGradient>
<linearGradient id="paint3_linear_1783_4775" x1="328.999" y1="93.9998" x2="328.999" y2="-0.000229119" gradientUnits="userSpaceOnUse">
<stop offset="0.0292777" stop-color="white" stop-opacity="0"/>
<stop offset="0.995147" stop-color="#CCCCCC"/>
</linearGradient>
<linearGradient id="paint4_linear_1783_4775" x1="423" y1="93.9998" x2="423" y2="-0.000229119" gradientUnits="userSpaceOnUse">
<stop offset="0.0292777" stop-color="white" stop-opacity="0"/>
<stop offset="0.995147" stop-color="#CCCCCC"/>
</linearGradient>
<linearGradient id="paint5_linear_1783_4775" x1="517.001" y1="93.9998" x2="517.001" y2="-0.000229119" gradientUnits="userSpaceOnUse">
<stop offset="0.0292777" stop-color="white" stop-opacity="0"/>
<stop offset="0.995147" stop-color="#CCCCCC"/>
</linearGradient>
<linearGradient id="paint6_linear_1783_4775" x1="610.999" y1="93.9998" x2="610.999" y2="-0.000229119" gradientUnits="userSpaceOnUse">
<stop offset="0.0292777" stop-color="white" stop-opacity="0"/>
<stop offset="0.995147" stop-color="#CCCCCC"/>
</linearGradient>
<linearGradient id="paint7_linear_1783_4775" x1="704.999" y1="93.9998" x2="704.999" y2="-0.000229119" gradientUnits="userSpaceOnUse">
<stop offset="0.0292777" stop-color="white" stop-opacity="0"/>
<stop offset="0.995147" stop-color="#CCCCCC"/>
</linearGradient>
<linearGradient id="paint8_linear_1783_4775" x1="799" y1="93.9998" x2="799" y2="-0.000229119" gradientUnits="userSpaceOnUse">
<stop offset="0.0292777" stop-color="white" stop-opacity="0"/>
<stop offset="0.995147" stop-color="#CCCCCC"/>
</linearGradient>
<linearGradient id="paint9_linear_1783_4775" x1="893.001" y1="93.9998" x2="893.001" y2="-0.000229119" gradientUnits="userSpaceOnUse">
<stop offset="0.0292777" stop-color="white" stop-opacity="0"/>
<stop offset="0.995147" stop-color="#CCCCCC"/>
</linearGradient>
<linearGradient id="paint10_linear_1783_4775" x1="987.001" y1="93.9998" x2="987.001" y2="-0.000229119" gradientUnits="userSpaceOnUse">
<stop offset="0.0292777" stop-color="white" stop-opacity="0"/>
<stop offset="0.995147" stop-color="#CCCCCC"/>
</linearGradient>
<linearGradient id="paint11_linear_1783_4775" x1="1081" y1="93.9998" x2="1081" y2="-0.000229119" gradientUnits="userSpaceOnUse">
<stop offset="0.0292777" stop-color="white" stop-opacity="0"/>
<stop offset="0.995147" stop-color="#CCCCCC"/>
</linearGradient>
<linearGradient id="paint12_linear_1783_4775" x1="1175" y1="93.9998" x2="1175" y2="-0.000229119" gradientUnits="userSpaceOnUse">
<stop offset="0.0292777" stop-color="white" stop-opacity="0"/>
<stop offset="0.995147" stop-color="#CCCCCC"/>
</linearGradient>
<linearGradient id="paint13_linear_1783_4775" x1="1269" y1="93.9998" x2="1269" y2="-0.000229119" gradientUnits="userSpaceOnUse">
<stop offset="0.0292777" stop-color="white" stop-opacity="0"/>
<stop offset="0.995147" stop-color="#CCCCCC"/>
</linearGradient>
<linearGradient id="paint14_linear_1783_4775" x1="1410" y1="93.9999" x2="1316" y2="0.0039922" gradientUnits="userSpaceOnUse">
<stop offset="0.0292777" stop-color="white" stop-opacity="0"/>
<stop offset="0.995147" stop-color="#CCCCCC"/>
</linearGradient>
</defs>
</svg>
