<svg width="1410" height="94" viewBox="0 0 1410 94" fill="none" xmlns="http://www.w3.org/2000/svg">
<mask id="mask0_741_10648" style="mask-type:luminance" maskUnits="userSpaceOnUse" x="0" y="0" width="94" height="94">
<path d="M0 0H94V94H0V0Z" fill="white"/>
</mask>
<g mask="url(#mask0_741_10648)">
<path d="M94 94V94.6912H94.6912V94H94ZM93.3088 0V94H94.6912V0H93.3088ZM94 93.3088H0V94.6912H94V93.3088Z" fill="url(#paint0_linear_741_10648)" fill-opacity="0.2"/>
</g>
<mask id="mask1_741_10648" style="mask-type:luminance" maskUnits="userSpaceOnUse" x="94" y="0" width="94" height="94">
<path d="M94 0H188V94H94V0Z" fill="white"/>
</mask>
<g mask="url(#mask1_741_10648)">
<path d="M188 94V94.6912H188.691V94H188ZM93.9997 94H93.3086V94.6912H93.9997V94ZM187.309 0V94H188.691V0H187.309ZM188 93.3088H93.9997V94.6912H188V93.3088ZM94.6909 94V0H93.3086V94H94.6909Z" fill="url(#paint1_linear_741_10648)" fill-opacity="0.2"/>
</g>
<mask id="mask2_741_10648" style="mask-type:luminance" maskUnits="userSpaceOnUse" x="188" y="0" width="94" height="94">
<path d="M188 0H282V94H188V0Z" fill="white"/>
</mask>
<g mask="url(#mask2_741_10648)">
<path d="M282 94V94.6912H282.692V94H282ZM188 94H187.31V94.6912H188V94ZM281.31 0V94H282.692V0H281.31ZM282 93.3088H188V94.6912H282V93.3088ZM188.692 94V0H187.31V94H188.692Z" fill="url(#paint2_linear_741_10648)" fill-opacity="0.2"/>
</g>
<mask id="mask3_741_10648" style="mask-type:luminance" maskUnits="userSpaceOnUse" x="282" y="0" width="94" height="94">
<path d="M282 0H376V94H282V0Z" fill="white"/>
</mask>
<g mask="url(#mask3_741_10648)">
<path d="M376 94V94.6912H376.692V94H376ZM282 94H281.31V94.6912H282V94ZM375.309 0V94H376.692V0H375.309ZM376 93.3088H282V94.6912H376V93.3088ZM282.692 94V0H281.31V94H282.692Z" fill="url(#paint3_linear_741_10648)" fill-opacity="0.2"/>
</g>
<mask id="mask4_741_10648" style="mask-type:luminance" maskUnits="userSpaceOnUse" x="376" y="0" width="94" height="94">
<path d="M376 0H470V94H376V0Z" fill="white"/>
</mask>
<g mask="url(#mask4_741_10648)">
<path d="M470 94V94.6912H470.691V94H470ZM376 94H375.309V94.6912H376V94ZM469.309 0V94H470.691V0H469.309ZM470 93.3088H376V94.6912H470V93.3088ZM376.692 94V0H375.309V94H376.692Z" fill="url(#paint4_linear_741_10648)" fill-opacity="0.2"/>
</g>
<mask id="mask5_741_10648" style="mask-type:luminance" maskUnits="userSpaceOnUse" x="470" y="0" width="94" height="94">
<path d="M470 0H564V94H470V0Z" fill="white"/>
</mask>
<g mask="url(#mask5_741_10648)">
<path d="M564 94V94.6912H564.692V94H564ZM470 94H469.309V94.6912H470V94ZM563.31 0V94H564.692V0H563.31ZM564 93.3088H470V94.6912H564V93.3088ZM470.691 94V0H469.309V94H470.691Z" fill="url(#paint5_linear_741_10648)" fill-opacity="0.2"/>
</g>
<mask id="mask6_741_10648" style="mask-type:luminance" maskUnits="userSpaceOnUse" x="564" y="0" width="94" height="94">
<path d="M564 0H658V94H564V0Z" fill="white"/>
</mask>
<g mask="url(#mask6_741_10648)">
<path d="M658 94V94.6912H658.692V94H658ZM564 94H563.31V94.6912H564V94ZM657.309 0V94H658.692V0H657.309ZM658 93.3088H564V94.6912H658V93.3088ZM564.692 94V0H563.31V94H564.692Z" fill="url(#paint6_linear_741_10648)" fill-opacity="0.2"/>
</g>
<mask id="mask7_741_10648" style="mask-type:luminance" maskUnits="userSpaceOnUse" x="658" y="0" width="94" height="94">
<path d="M658 0H752V94H658V0Z" fill="white"/>
</mask>
<g mask="url(#mask7_741_10648)">
<path d="M752 94V94.6912H752.692V94H752ZM658 94H657.31V94.6912H658V94ZM751.309 0V94H752.692V0H751.309ZM752 93.3088H658V94.6912H752V93.3088ZM658.692 94V0H657.31V94H658.692Z" fill="url(#paint7_linear_741_10648)" fill-opacity="0.2"/>
</g>
<mask id="mask8_741_10648" style="mask-type:luminance" maskUnits="userSpaceOnUse" x="752" y="0" width="94" height="94">
<path d="M752 0H846V94H752V0Z" fill="white"/>
</mask>
<g mask="url(#mask8_741_10648)">
<path d="M846 94V94.6912H846.691V94H846ZM752 94H751.309V94.6912H752V94ZM845.309 0V94H846.691V0H845.309ZM846 93.3088H752V94.6912H846V93.3088ZM752.692 94V0H751.309V94H752.692Z" fill="url(#paint8_linear_741_10648)" fill-opacity="0.2"/>
</g>
<mask id="mask9_741_10648" style="mask-type:luminance" maskUnits="userSpaceOnUse" x="846" y="0" width="94" height="94">
<path d="M846 0H940V94H846V0Z" fill="white"/>
</mask>
<g mask="url(#mask9_741_10648)">
<path d="M940 94V94.6912H940.692V94H940ZM846 94H845.309V94.6912H846V94ZM939.31 0V94H940.692V0H939.31ZM940 93.3088H846V94.6912H940V93.3088ZM846.691 94V0H845.309V94H846.691Z" fill="url(#paint9_linear_741_10648)" fill-opacity="0.2"/>
</g>
<mask id="mask10_741_10648" style="mask-type:luminance" maskUnits="userSpaceOnUse" x="940" y="0" width="94" height="94">
<path d="M940 0H1034V94H940V0Z" fill="white"/>
</mask>
<g mask="url(#mask10_741_10648)">
<path d="M1034 94V94.6912H1034.69V94H1034ZM940 94H939.31V94.6912H940V94ZM1033.32 0V94H1034.69V0H1033.32ZM1034 93.3088H940V94.6912H1034V93.3088ZM940.692 94V0H939.31V94H940.692Z" fill="url(#paint10_linear_741_10648)" fill-opacity="0.2"/>
</g>
<mask id="mask11_741_10648" style="mask-type:luminance" maskUnits="userSpaceOnUse" x="1034" y="0" width="94" height="94">
<path d="M1034 0H1128V94H1034V0Z" fill="white"/>
</mask>
<g mask="url(#mask11_741_10648)">
<path d="M1128 94V94.6912H1128.69V94H1128ZM1034 94H1033.32V94.6912H1034V94ZM1127.31 0V94H1128.69V0H1127.31ZM1128 93.3088H1034V94.6912H1128V93.3088ZM1034.69 94V0H1033.32V94H1034.69Z" fill="url(#paint11_linear_741_10648)" fill-opacity="0.2"/>
</g>
<mask id="mask12_741_10648" style="mask-type:luminance" maskUnits="userSpaceOnUse" x="1128" y="0" width="94" height="94">
<path d="M1128 0H1222V94H1128V0Z" fill="white"/>
</mask>
<g mask="url(#mask12_741_10648)">
<path d="M1222 94V94.6912H1222.69V94H1222ZM1128 94H1127.31V94.6912H1128V94ZM1221.32 0V94H1222.69V0H1221.32ZM1222 93.3088H1128V94.6912H1222V93.3088ZM1128.69 94V0H1127.31V94H1128.69Z" fill="url(#paint12_linear_741_10648)" fill-opacity="0.2"/>
</g>
<mask id="mask13_741_10648" style="mask-type:luminance" maskUnits="userSpaceOnUse" x="1222" y="0" width="94" height="94">
<path d="M1222 0H1316V94H1222V0Z" fill="white"/>
</mask>
<g mask="url(#mask13_741_10648)">
<path d="M1316 94V94.6912H1316.69V94H1316ZM1222 94H1221.32V94.6912H1222V94ZM1315.31 0V94H1316.69V0H1315.31ZM1316 93.3088H1222V94.6912H1316V93.3088ZM1222.69 94V0H1221.32V94H1222.69Z" fill="url(#paint13_linear_741_10648)" fill-opacity="0.2"/>
</g>
<mask id="mask14_741_10648" style="mask-type:luminance" maskUnits="userSpaceOnUse" x="1316" y="0" width="94" height="94">
<path d="M1316 0H1410V94H1316V0Z" fill="white"/>
</mask>
<g mask="url(#mask14_741_10648)">
<path d="M1316 94H1315.31V94.6912H1316V94ZM1410 93.3088H1316V94.6912H1410V93.3088ZM1316.69 94V0H1315.31V94H1316.69Z" fill="url(#paint14_linear_741_10648)" fill-opacity="0.2"/>
</g>
<defs>
<linearGradient id="paint0_linear_741_10648" x1="0" y1="0" x2="94" y2="94" gradientUnits="userSpaceOnUse">
<stop offset="0.0292777" stop-color="white" stop-opacity="0"/>
<stop offset="0.995147" stop-color="#CCCCCC"/>
</linearGradient>
<linearGradient id="paint1_linear_741_10648" x1="141" y1="0" x2="141" y2="94" gradientUnits="userSpaceOnUse">
<stop offset="0.0292777" stop-color="white" stop-opacity="0"/>
<stop offset="0.995147" stop-color="#CCCCCC"/>
</linearGradient>
<linearGradient id="paint2_linear_741_10648" x1="235" y1="0" x2="235" y2="94" gradientUnits="userSpaceOnUse">
<stop offset="0.0292777" stop-color="white" stop-opacity="0"/>
<stop offset="0.995147" stop-color="#CCCCCC"/>
</linearGradient>
<linearGradient id="paint3_linear_741_10648" x1="329" y1="0" x2="329" y2="94" gradientUnits="userSpaceOnUse">
<stop offset="0.0292777" stop-color="white" stop-opacity="0"/>
<stop offset="0.995147" stop-color="#CCCCCC"/>
</linearGradient>
<linearGradient id="paint4_linear_741_10648" x1="423" y1="0" x2="423" y2="94" gradientUnits="userSpaceOnUse">
<stop offset="0.0292777" stop-color="white" stop-opacity="0"/>
<stop offset="0.995147" stop-color="#CCCCCC"/>
</linearGradient>
<linearGradient id="paint5_linear_741_10648" x1="517.001" y1="0" x2="517.001" y2="94" gradientUnits="userSpaceOnUse">
<stop offset="0.0292777" stop-color="white" stop-opacity="0"/>
<stop offset="0.995147" stop-color="#CCCCCC"/>
</linearGradient>
<linearGradient id="paint6_linear_741_10648" x1="611" y1="0" x2="611" y2="94" gradientUnits="userSpaceOnUse">
<stop offset="0.0292777" stop-color="white" stop-opacity="0"/>
<stop offset="0.995147" stop-color="#CCCCCC"/>
</linearGradient>
<linearGradient id="paint7_linear_741_10648" x1="705" y1="0" x2="705" y2="94" gradientUnits="userSpaceOnUse">
<stop offset="0.0292777" stop-color="white" stop-opacity="0"/>
<stop offset="0.995147" stop-color="#CCCCCC"/>
</linearGradient>
<linearGradient id="paint8_linear_741_10648" x1="799" y1="0" x2="799" y2="94" gradientUnits="userSpaceOnUse">
<stop offset="0.0292777" stop-color="white" stop-opacity="0"/>
<stop offset="0.995147" stop-color="#CCCCCC"/>
</linearGradient>
<linearGradient id="paint9_linear_741_10648" x1="893.001" y1="0" x2="893.001" y2="94" gradientUnits="userSpaceOnUse">
<stop offset="0.0292777" stop-color="white" stop-opacity="0"/>
<stop offset="0.995147" stop-color="#CCCCCC"/>
</linearGradient>
<linearGradient id="paint10_linear_741_10648" x1="987.002" y1="0" x2="987.002" y2="94" gradientUnits="userSpaceOnUse">
<stop offset="0.0292777" stop-color="white" stop-opacity="0"/>
<stop offset="0.995147" stop-color="#CCCCCC"/>
</linearGradient>
<linearGradient id="paint11_linear_741_10648" x1="1081" y1="0" x2="1081" y2="94" gradientUnits="userSpaceOnUse">
<stop offset="0.0292777" stop-color="white" stop-opacity="0"/>
<stop offset="0.995147" stop-color="#CCCCCC"/>
</linearGradient>
<linearGradient id="paint12_linear_741_10648" x1="1175" y1="0" x2="1175" y2="94" gradientUnits="userSpaceOnUse">
<stop offset="0.0292777" stop-color="white" stop-opacity="0"/>
<stop offset="0.995147" stop-color="#CCCCCC"/>
</linearGradient>
<linearGradient id="paint13_linear_741_10648" x1="1269" y1="0" x2="1269" y2="94" gradientUnits="userSpaceOnUse">
<stop offset="0.0292777" stop-color="white" stop-opacity="0"/>
<stop offset="0.995147" stop-color="#CCCCCC"/>
</linearGradient>
<linearGradient id="paint14_linear_741_10648" x1="1410" y1="0" x2="1316" y2="93.9958" gradientUnits="userSpaceOnUse">
<stop stop-color="white" stop-opacity="0"/>
<stop offset="1" stop-color="#CCCCCC"/>
</linearGradient>
</defs>
</svg>
